<svg width="1320" height="688" viewBox="0 0 1320 688" fill="none" xmlns="http://www.w3.org/2000/svg">
<g clip-path="url(#clip0)" filter="url(#filter0_dd)">
<rect width="1312" height="680" transform="translate(4)" fill="#EEE9E8"/>
<path d="M21.7764 718.74C29.7103 717.171 37.5738 714.831 44.928 711.34C48.5708 709.556 52.1593 707.611 55.4709 705.31C56.3167 704.765 57.1452 704.182 57.9425 703.566C58.7397 702.95 59.574 702.379 60.3456 701.744C61.8716 700.434 63.4405 699.183 64.8525 697.769C70.6829 692.297 75.5271 685.902 79.3468 679.188C83.0497 672.403 85.1645 665.023 86.5315 657.604C87.2121 653.888 87.7306 650.151 88.1552 646.394L89.4716 635.103C90.281 627.576 90.9795 620.066 91.3483 612.58C91.6688 605.099 91.7021 597.621 91.096 590.273C90.4559 582.924 89.2842 575.641 86.9139 568.796L86.0283 566.222L84.9354 563.755L83.8282 561.295L82.4713 558.96C80.7707 555.774 78.4571 552.967 75.9676 550.301C70.9177 544.998 64.7415 540.643 58.319 536.613C45.3548 528.668 31.9199 521.194 17.563 515.473C3.24594 509.765 -12.2091 505.86 -28.1735 505.903C-44.1042 505.792 -60.2039 510.361 -74.0846 518.519C-88.1163 526.528 -100.207 537.308 -111.161 548.852C-116.618 554.669 -121.787 560.713 -126.771 566.908C-131.741 573.096 -136.549 579.382 -140.892 585.911C-149.554 598.91 -156.81 612.894 -159.593 627.507C-160.955 634.785 -161.142 642.145 -159.849 649.204C-158.473 656.258 -155.737 662.894 -151.43 668.665C-149.344 671.572 -146.948 674.296 -144.28 676.791C-141.64 679.299 -138.796 681.654 -135.748 683.78C-132.723 685.931 -129.561 687.93 -126.255 689.756C-122.977 691.594 -119.595 693.325 -116.139 694.915C-102.272 701.255 -87.4035 705.946 -72.2921 709.957C-64.7238 711.934 -57.0931 713.822 -49.4147 715.472C-41.7279 717.103 -33.9424 718.459 -26.0839 719.442C-10.3926 721.389 5.81992 721.638 21.7764 718.74ZM21.843 719.158C13.8522 720.675 5.75385 721.374 -2.29193 721.539C-10.3489 721.756 -18.3623 721.305 -26.3196 720.597C-42.2397 719.169 -57.8261 716.078 -73.2428 712.681C-88.6539 709.219 -103.931 704.987 -118.284 698.661C-125.46 695.537 -132.374 691.818 -138.746 687.364C-141.945 685.166 -144.971 682.706 -147.805 680.068C-150.652 677.436 -153.245 674.537 -155.525 671.422C-160.199 665.243 -163.194 657.871 -164.668 650.289C-166.076 642.662 -165.845 634.711 -164.303 626.998C-162.766 619.272 -160.026 611.77 -156.589 604.576C-153.146 597.396 -149.011 590.512 -144.489 583.889C-139.966 577.265 -135.063 570.89 -129.902 564.71C-124.762 558.524 -119.422 552.481 -113.786 546.646C-102.511 535.023 -89.7685 524.371 -75.2559 516.489C-71.6677 514.467 -67.8739 512.755 -64.0827 511.152C-60.2258 509.66 -56.3201 508.316 -52.3197 507.3C-44.3331 505.276 -36.1503 504.308 -28.0612 504.355C-19.9722 504.401 -11.9828 505.45 -4.27285 507.21C3.45127 508.964 10.9667 511.32 18.2161 514.149C25.5024 516.946 32.5539 520.172 39.4639 523.615C46.3796 527.071 53.1507 530.699 59.8144 534.545C66.447 538.435 72.9442 542.71 78.4125 548.151C81.1154 550.878 83.671 553.809 85.5852 557.133L87.1102 559.578L88.3655 562.143L89.5981 564.733L90.5836 567.417C93.1651 574.586 94.562 582.109 95.1971 589.677C95.8521 597.251 95.8476 604.869 95.4138 612.478C94.9941 620.08 94.1651 627.678 93.1283 635.229C92.6128 639.011 92.0773 642.786 91.4821 646.542C90.9125 650.317 90.2379 654.123 89.3954 657.895C87.7104 665.44 85.252 673.003 81.16 679.945C76.9539 686.784 71.8224 693.105 65.6904 698.511C59.6181 703.936 52.6478 708.445 45.1795 711.832C41.4597 713.557 37.6111 714.953 33.7136 716.201C29.7963 717.442 25.8242 718.368 21.843 719.158Z" fill="#A47E1B"/>
<path d="M1179.27 -78.8474C1173 -75.774 1167.09 -71.2327 1161.7 -64.9334C1126.97 -24.296 1106.4 68.1732 1158.1 111.42C1180.08 129.803 1208.64 143.669 1233.46 156.782C1270.66 176.444 1303.83 180.517 1338.1 157.966C1365.3 140.071 1395 114.202 1403.82 79.9926C1408.6 61.4268 1406.01 39.4288 1393.71 23.5574C1383.57 10.4846 1368.48 3.12387 1354.49 -4.93383C1306.73 -32.4654 1235.35 -106.321 1179.27 -78.8474Z" fill="#182A34"/>
<path d="M1164.6 121.865C1158.12 123.561 1145.93 129.826 1150.01 137.422C1153.37 143.685 1163.86 142.098 1169.17 139.11C1173.32 136.779 1178.56 131.243 1175.68 126.597C1174.09 124.031 1168.52 122.143 1164.6 121.865Z" fill="#A47E1B"/>
<path d="M1200.28 104.819C1183 109.119 1196.06 125.476 1205.44 116.519C1208.46 113.651 1210.37 110.466 1207.4 107.186C1205.43 105.023 1201.91 103.798 1199.16 104.947" fill="#A47E1B"/>
<path d="M1207.91 139.598C1188.91 147.342 1208.69 166.855 1217.59 153.517C1222.59 146.032 1215.61 141.073 1207.91 139.598Z" fill="#A47E1B"/>
<path d="M1241.11 126.174C1239.16 131.3 1238.68 136.801 1245.08 139.184C1248.18 136.678 1251.87 132.002 1249.95 127.982C1248.73 125.428 1243.49 122.526 1241.43 125.294" fill="#A47E1B"/>
<path d="M1176.45 85.4736C1168.33 84.928 1159.5 95.9376 1171.76 95.9291C1179.54 95.92 1185.82 88.0993 1176.45 85.4736Z" fill="#A47E1B"/>
<path d="M1177.99 160.9C1172.59 159.255 1168.69 161.233 1166.06 166.041C1163.99 169.821 1164.34 171.844 1168.86 173.093C1175.67 174.975 1186.27 162.474 1177.99 160.9Z" fill="#A47E1B"/>
<path d="M1245.01 97.0201C1242.72 98.2152 1236.41 100.805 1238.25 104.009C1239.59 106.347 1242.63 105.357 1244.53 104.666C1246.53 103.926 1250.6 102.02 1250.27 99.4655C1250.07 97.7688 1246.79 96.1383 1245.2 97.4005" fill="#A47E1B"/>
<path d="M1215.24 62.4494C1211.25 63.9793 1204.78 69.8223 1208.24 74.0843C1210.99 77.4592 1214.84 75.1919 1216.96 72.5947C1219.82 69.1098 1220.04 64.0109 1215.24 62.4494Z" fill="#A47E1B"/>
<path d="M1250.7 63.4115C1247.9 65.003 1242.85 69.2742 1244.28 72.7215C1245.37 75.3413 1249.18 76.3167 1251.79 74.8573C1255.65 72.7098 1256.27 64.8882 1250.7 63.4115Z" fill="#A47E1B"/>
<path d="M59.3792 652.114C44.4926 665.908 69.2289 676.009 72.7553 661.588C73.8914 656.966 73.6828 652.6 68.3557 650.766C64.8388 649.558 60.352 650.172 58.3049 652.854" fill="#182A34"/>
<path d="M91.1422 684.793C76.8443 703.124 110.697 712.925 110.722 694.163C110.732 683.637 100.117 682.193 91.1422 684.793Z" fill="#182A34"/>
<path d="M115.82 652.751C117.341 659.176 120.634 665.207 128.898 664.259C130.388 659.955 130.977 653.064 126.22 649.88C123.195 647.859 115.769 647.64 115.553 651.651" fill="#182A34"/>
<path d="M21.6802 644.452C12.9343 648.241 11.382 664.5 24.0287 657.902C32.0461 653.714 33.1528 642.162 21.6802 644.452Z" fill="#182A34"/>
<path d="M99.7813 619.842C98.2467 622.318 93.5137 628.417 97.6109 630.781C100.603 632.504 103.062 629.835 104.54 628.095C106.102 626.243 108.985 622.066 106.894 619.57C105.517 617.906 101.019 617.959 100.242 620.136" fill="#182A34"/>
<path d="M45.5012 599.293C42.4277 603.046 39.7622 612.654 46.2775 615.258C51.4399 617.318 53.8572 612.869 54.2629 609.004C54.8214 603.81 51.5434 598.343 45.5012 599.293Z" fill="#182A34"/>
<path d="M82.4412 581.274C80.6439 584.449 78.3597 591.647 82.2176 594.488C85.148 596.647 89.7637 595.616 91.4544 592.682C93.9693 588.352 89.2195 579.821 82.4412 581.274Z" fill="#182A34"/>
</g>
<defs>
<filter id="filter0_dd" x="0" y="0" width="1320" height="688" filterUnits="userSpaceOnUse" color-interpolation-filters="sRGB">
<feFlood flood-opacity="0" result="BackgroundImageFix"/>
<feColorMatrix in="SourceAlpha" type="matrix" values="0 0 0 0 0 0 0 0 0 0 0 0 0 0 0 0 0 0 127 0"/>
<feOffset dy="4"/>
<feGaussianBlur stdDeviation="2"/>
<feColorMatrix type="matrix" values="0 0 0 0 0 0 0 0 0 0 0 0 0 0 0 0 0 0 0.25 0"/>
<feBlend mode="normal" in2="BackgroundImageFix" result="effect1_dropShadow"/>
<feColorMatrix in="SourceAlpha" type="matrix" values="0 0 0 0 0 0 0 0 0 0 0 0 0 0 0 0 0 0 127 0"/>
<feOffset dy="4"/>
<feGaussianBlur stdDeviation="2"/>
<feColorMatrix type="matrix" values="0 0 0 0 0 0 0 0 0 0 0 0 0 0 0 0 0 0 0.25 0"/>
<feBlend mode="normal" in2="effect1_dropShadow" result="effect2_dropShadow"/>
<feBlend mode="normal" in="SourceGraphic" in2="effect2_dropShadow" result="shape"/>
</filter>
<clipPath id="clip0">
<rect width="1312" height="680" fill="white" transform="translate(4)"/>
</clipPath>
</defs>
</svg>
